<svg xmlns="http://www.w3.org/2000/svg" viewBox="0 0 512 512">
  <defs>
    <linearGradient id="bg" x1="0%" y1="0%" x2="100%" y2="100%">
      <stop offset="0%" stop-color="#4caf50"/>
      <stop offset="100%" stop-color="#004d40"/>
    </linearGradient>
    <filter id="shadow">
      <feDropShadow dx="2" dy="8" stdDeviation="12" flood-color="#000000" flood-opacity="0.25"/>
    </filter>
  </defs>
  
  <!-- Rounded App Icon Background -->
  <rect width="512" height="512" rx="115" fill="url(#bg)"/>
  
  <!-- Eco/Leaf Icon Group -->
  <g transform="translate(106, 106) scale(12.5)" fill="#ffffff" filter="url(#shadow)">
    <path d="M19.95 21C22.61 17.52 23 11.23 18.06 6.32c-3.13-3.11-7.59-4.32-11.83-4.32H3v3.23c0 4.21 1.22 8.65 4.34 11.76C12.26 21.94 18.57 21.49 19.95 21zM5 4h1.16C9.58 4 13.25 5 15.93 7.66 18.3 10.02 19.34 14.18 18 17.77c-3.59 1.34-7.75.31-10.11-2.06C5.23 13.04 4 9.4 4 5.92V4h1z"/>
    <path d="M7.88 16.12c4.46-4.44 6.88-10.73 6.88-10.73l-1.41-1.42s-6.31 2.4-10.76 6.84L7.88 16.12z"/>
  </g>
</svg>
